<?xml version="1.0" standalone="no"?>
<!DOCTYPE svg PUBLIC "-//W3C//DTD SVG 20010904//EN"
 "http://www.w3.org/TR/2001/REC-SVG-20010904/DTD/svg10.dtd">
<svg version="1.0" xmlns="http://www.w3.org/2000/svg"
 width="200.000000pt" height="200.000000pt" viewBox="0 0 200.000000 200.000000"
 preserveAspectRatio="xMidYMid meet">
<metadata>
Created by potrace 1.11, written by Peter Selinger 2001-2013
</metadata>
<g transform="translate(0.000000,200.000000) scale(0.100000,-0.100000)"
fill="#000000" stroke="none">
<path d="M884 1677 c-56 -45 -201 -160 -323 -256 l-221 -174 0 -59 0 -60 38 2
c72 4 74 3 72 -32 -1 -18 -2 -157 -1 -308 l1 -275 548 1 c301 1 549 2 552 3 3
0 4 138 4 306 l-2 305 32 1 c17 1 41 0 54 -1 21 -1 22 2 22 58 l0 60 -182 143
c-101 79 -190 149 -198 156 -101 83 -274 213 -283 212 -7 0 -58 -37 -113 -82z
m152 -119 c16 -13 34 -27 40 -33 7 -5 84 -66 173 -135 l161 -125 -3 -304 -2
-304 -400 1 c-220 0 -403 1 -407 1 -10 1 -10 611 0 611 4 0 18 10 32 23 46 42
362 287 370 287 4 0 20 -10 36 -22z"/>
<path d="M862 1320 c-66 -10 -96 -36 -117 -101 -15 -45 -19 -49 -49 -49 -57 0
-78 -50 -30 -72 20 -9 24 -16 18 -32 -9 -29 -17 -261 -10 -291 14 -54 96 -35
96 22 l0 23 229 0 230 0 3 -32 c2 -26 9 -35 32 -43 24 -8 31 -6 47 14 16 20
19 40 19 136 0 72 -5 127 -14 153 -14 39 -14 40 9 46 52 13 37 76 -19 76 -31
0 -34 4 -59 60 -21 51 -32 63 -64 76 -43 19 -234 26 -321 14z m299 -79 c21 -1
28 -10 47 -63 13 -35 18 -64 13 -67 -7 -5 -346 -6 -438 -2 l-21 1 25 64 c23
59 29 65 57 68 26 3 227 2 317 -1z m-368 -236 c20 -19 11 -53 -16 -61 -15 -5
-26 0 -39 16 -17 21 -17 24 -2 41 21 23 38 24 57 4z m465 3 c28 -28 1 -75 -37
-63 -25 8 -34 31 -21 56 12 21 40 25 58 7z"/>
<path d="M157 417 c-15 -5 -28 -13 -28 -18 -9 -66 1 -86 46 -95 46 -8 45 -24
0 -20 -39 3 -59 -13 -49 -38 5 -14 17 -16 66 -13 63 4 75 11 78 42 6 55 1 64
-40 75 -42 11 -57 32 -18 25 39 -8 58 3 49 28 -9 24 -56 30 -104 14z"/>
<path d="M324 422 c-20 -3 -22 -8 -20 -95 l1 -92 28 -3 c26 -3 27 -2 28 50 1
29 3 45 6 36 2 -10 13 -18 24 -18 11 0 23 8 27 18 5 11 9 0 12 -33 5 -46 7
-50 33 -53 l27 -3 0 95 c0 70 -3 96 -12 97 -29 3 -44 -4 -65 -29 l-21 -27 -12
27 c-14 30 -25 36 -56 30z"/>
<path d="M566 415 c-21 -17 -43 -87 -42 -135 1 -39 4 -45 23 -48 17 -3 26 3
33 22 13 36 50 36 50 1 0 -22 4 -25 28 -22 24 3 27 9 30 43 4 43 -26 143 -43
145 -41 5 -69 3 -79 -6z m54 -71 c0 -8 -9 -14 -20 -14 -18 0 -19 3 -10 20 12
22 30 18 30 -6z"/>
<path d="M738 422 c-16 -3 -18 -16 -18 -97 l0 -94 30 1 c26 1 30 5 30 28 0 16
6 30 13 32 23 9 37 -4 37 -33 0 -27 3 -30 28 -27 24 3 27 7 30 46 2 28 -1 44
-10 47 -9 4 -12 18 -10 44 3 34 1 40 -20 47 -26 8 -85 12 -110 6z m72 -64 c0
-10 -7 -18 -15 -18 -8 0 -15 8 -15 18 0 10 7 19 15 19 8 0 15 -9 15 -19z"/>
<path d="M904 421 c-2 -2 -4 -15 -4 -28 0 -18 5 -23 25 -23 24 0 25 -2 25 -70
l0 -70 30 2 30 2 0 67 c0 62 2 68 23 71 24 3 38 47 15 49 -39 4 -140 4 -144 0z"/>
<path d="M1157 423 c-16 -4 -17 -15 -15 -96 l3 -92 28 -3 c26 -3 33 8 29 49 0
3 16 6 36 7 20 2 42 9 48 17 12 16 10 93 -3 106 -10 9 -100 18 -126 12z m79
-71 c-2 -9 -8 -18 -13 -19 -15 -5 -26 14 -19 32 7 19 35 8 32 -13z"/>
<path d="M1339 384 c-16 -36 -25 -96 -20 -140 0 -6 12 -11 26 -11 24 0 29 7
26 35 -1 7 9 12 23 12 18 0 25 -6 28 -22 2 -17 10 -23 31 -24 26 -1 27 1 27
46 0 45 -25 139 -38 141 -4 1 -24 2 -46 3 -37 2 -40 0 -57 -40z m74 -34 c4
-15 0 -20 -14 -20 -21 0 -22 1 -13 24 8 22 21 20 27 -4z"/>
<path d="M1519 421 c-5 -19 -7 -159 -2 -174 3 -12 12 -16 31 -14 22 3 27 9 26
30 -1 17 4 27 12 27 8 0 17 1 21 3 4 1 10 -11 13 -28 4 -24 11 -31 33 -33 26
-3 27 -2 27 42 0 25 -5 48 -10 51 -6 4 -9 22 -8 41 1 19 -3 39 -9 45 -11 11
-132 20 -134 10z m91 -61 c0 -10 -31 -22 -38 -16 -2 3 -2 12 1 20 6 15 37 12
37 -4z"/>
<path d="M1727 422 c-16 -3 -17 -14 -15 -95 l3 -92 28 -3 c25 -3 27 -1 27 36
0 36 2 39 23 35 17 -3 23 -11 22 -26 -3 -35 5 -47 31 -45 13 1 25 5 25 8 7 32
4 75 -8 97 -10 19 -11 34 -4 55 10 28 6 36 -16 32 -7 -1 -18 -2 -24 -3 -5 0
-18 -18 -27 -38 l-17 -38 -3 37 c-3 37 -14 47 -45 40z"/>
</g>
</svg>
